Coordinates
version=1
nRows=13
nColumns=27
inDegrees=yes

Units are S.I. units (second, meters, Newtons, ...)
If the header above contains a line with 'inDegrees', this indicates whether rotational values are in degrees (yes) or radians (no).

endheader
time	pelvis_rotation	pelvis_tilt	pelvis_list	pelvis_tx	pelvis_ty	pelvis_tz	hip_flexion_r	hip_adduction_r	hip_rotation_r	knee_angle_r	knee_rotation_r	knee_adduction_r	knee_angle_r_beta	ankle_angle_r	subtalar_angle_r	mtp_angle_r	hip_flexion_l	hip_adduction_l	hip_rotation_l	knee_angle_l	knee_rotation_l	knee_adduction_l	knee_angle_l_beta	ankle_angle_l	subtalar_angle_l	mtp_angle_l
      3.06500000	     -1.08819897	    -19.17230922	     -0.27260127	      0.05885981	      0.82942607	     -1.13206228	     30.81776969	    -24.43244235	    -26.83277474	     14.60565415	      0.00000000	      0.00000000	      0.25491675	     -9.84002031	      0.00000000	      0.00000000	     29.66843806	    -24.36799642	    -21.59479996	     12.27641737	      0.00000000	      0.00000000	      0.21426390	    -10.87925887	      0.00000000	      0.00000000
      3.07000000	     -0.93422839	    -19.53456030	     -0.23244135	      0.05785513	      0.82916535	     -1.13202942	     31.41661470	    -24.60582028	    -26.85236035	     15.02739852	      0.00000000	      0.00000000	      0.26227758	     -9.74322781	      0.00000000	      0.00000000	     30.36703622	    -24.36863878	    -21.30169097	     12.60067300	      0.00000000	      0.00000000	      0.21992323	    -10.80798681	      0.00000000	      0.00000000
      3.07500000	     -1.12966962	    -20.00764700	      0.05743941	      0.05644048	      0.82874943	     -1.13224061	     32.58122954	    -24.99571694	    -26.20680318	     15.76031641	      0.00000000	      0.00000000	      0.27506941	     -9.51465056	      0.00000000	      0.00000000	     30.93084988	    -24.20426056	    -21.56067066	     12.87544451	      0.00000000	      0.00000000	      0.22471890	    -10.76787822	      0.00000000	      0.00000000
      3.08000000	     -1.34346209	    -20.48563560	      0.26898476	      0.05501230	      0.82828938	     -1.13235492	     33.75614998	    -25.29751491	    -25.57681276	     16.50921850	      0.00000000	      0.00000000	      0.28814022	     -9.29929828	      0.00000000	      0.00000000	     31.54051103	    -24.13473225	    -21.79014288	     13.20577858	      0.00000000	      0.00000000	      0.23048432	    -10.71296197	      0.00000000	      0.00000000
      3.08500000	     -1.60001368	    -20.99863485	      0.55495497	      0.05341540	      0.82774130	     -1.13251219	     35.09091249	    -25.66783534	    -24.80216447	     17.36565583	      0.00000000	      0.00000000	      0.30308787	     -9.05402701	      0.00000000	      0.00000000	     32.17418502	    -24.02211105	    -22.10268799	     13.57761873	      0.00000000	      0.00000000	      0.23697415	    -10.64053181	      0.00000000	      0.00000000
      3.09000000	     -1.64093010	    -21.59446929	      0.76741187	      0.05171377	      0.82714219	     -1.13255737	     36.36367638	    -26.00641003	    -24.30570011	     18.17836353	      0.00000000	      0.00000000	      0.31727230	     -8.81637106	      0.00000000	      0.00000000	     33.08765883	    -23.95465569	    -22.06041349	     14.04667922	      0.00000000	      0.00000000	      0.24516080	    -10.54201017	      0.00000000	      0.00000000
      3.09500000	     -1.77184206	    -22.16931670	      1.17271411	      0.04996607	      0.82644085	     -1.13274645	     37.82572404	    -26.51654033	    -23.54882200	     19.13707641	      0.00000000	      0.00000000	      0.33400499	     -8.56359673	      0.00000000	      0.00000000	     33.85232935	    -23.72935242	    -22.25462848	     14.46649498	      0.00000000	      0.00000000	      0.25248797	    -10.46452711	      0.00000000	      0.00000000
      3.10000000	     -1.96170955	    -22.88440154	      1.47336655	      0.04798550	      0.82561702	     -1.13279850	     39.49406866	    -26.89931786	    -22.70261971	     20.15682686	      0.00000000	      0.00000000	      0.35180300	     -8.26735828	      0.00000000	      0.00000000	     34.85092554	    -23.67134138	    -22.46377723	     15.04361288	      0.00000000	      0.00000000	      0.26256058	    -10.34033877	      0.00000000	      0.00000000
      3.10500000	     -2.08386397	    -23.54346502	      1.78494956	      0.04606658	      0.82474406	     -1.13282483	     41.07098643	    -27.29356567	    -21.93168001	     21.16059536	      0.00000000	      0.00000000	      0.36932206	     -7.98202174	      0.00000000	      0.00000000	     35.82131368	    -23.58994466	    -22.59194298	     15.62158694	      0.00000000	      0.00000000	      0.27264813	    -10.21952035	      0.00000000	      0.00000000
      3.11000000	     -2.06795458	    -24.21348683	      2.16275499	      0.04403427	      0.82377827	     -1.13286833	     42.66247572	    -27.78773537	    -21.25190124	     22.21754787	      0.00000000	      0.00000000	      0.38776936	     -7.71418201	      0.00000000	      0.00000000	     36.87013204	    -23.42443212	    -22.54880129	     16.20582560	      0.00000000	      0.00000000	      0.28284501	    -10.10858179	      0.00000000	      0.00000000
      3.11500000	     -2.38325176	    -25.06206442	      2.60365871	      0.04167844	      0.82261847	     -1.13290796	     44.79064965	    -28.19674393	    -19.98597488	     23.43862549	      0.00000000	      0.00000000	      0.40908119	     -7.41557730	      0.00000000	      0.00000000	     37.96692000	    -23.34784054	    -22.99406359	     16.89649228	      0.00000000	      0.00000000	      0.29489942	     -9.94878980	      0.00000000	      0.00000000
      3.12000000	     -2.30111989	    -25.77941172	      2.56492763	      0.03967455	      0.82159712	     -1.13251755	     46.12550567	    -28.29486401	    -19.67666474	     24.28225677	      0.00000000	      0.00000000	      0.42380533	     -7.20077318	      0.00000000	      0.00000000	     39.35576958	    -23.61761505	    -22.63656052	     17.74126531	      0.00000000	      0.00000000	      0.30964349	     -9.78611584	      0.00000000	      0.00000000
      3.12500000	     -2.39731772	    -26.54499627	      3.24889462	      0.03738446	      0.82025047	     -1.13268633	     48.23774766	    -28.95887912	    -18.46097439	     25.59993390	      0.00000000	      0.00000000	      0.44680313	     -6.88878070	      0.00000000	      0.00000000	     40.36494217	    -23.28075421	    -22.97709964	     18.35696655	      0.00000000	      0.00000000	      0.32038951	     -9.64265581	      0.00000000	      0.00000000
